<?xml version="1.0" encoding="UTF-8" standalone="no"?>
<svg
   xmlns:dc="http://purl.org/dc/elements/1.1/"
   xmlns:cc="http://creativecommons.org/ns#"
   xmlns:rdf="http://www.w3.org/1999/02/22-rdf-syntax-ns#"
   xmlns:svg="http://www.w3.org/2000/svg"
   xmlns="http://www.w3.org/2000/svg"
   xmlns:sodipodi="http://sodipodi.sourceforge.net/DTD/sodipodi-0.dtd"
   xmlns:inkscape="http://www.inkscape.org/namespaces/inkscape"
   id="Layer_1"
   version="1.1"
   xml:space="preserve"
   viewBox="0 0 12 12"
   height="100%"
   width="100%"
   enable-background="new 0 0 500 500"
   inkscape:version="0.48.4 r9939"
   sodipodi:docname="mod.svg"><sodipodi:namedview
     pagecolor="#ffffff"
     bordercolor="#666666"
     borderopacity="1"
     objecttolerance="10"
     gridtolerance="10"
     guidetolerance="10"
     inkscape:pageopacity="0"
     inkscape:pageshadow="2"
     inkscape:window-width="1920"
     inkscape:window-height="1058"
     id="namedview3017"
     showgrid="false"
     inkscape:zoom="39.333333"
     inkscape:cx="5.4999862"
     inkscape:cy="5.2379847"
     inkscape:window-x="-8"
     inkscape:window-y="-8"
     inkscape:window-maximized="1"
     inkscape:current-layer="Layer_1" /><defs
     id="defs3019" /><metadata
     id="metadata3163"><rdf:RDF><cc:Work
         rdf:about=""><dc:format>image/svg+xml</dc:format><dc:type
           rdf:resource="http://purl.org/dc/dcmitype/StillImage" /><dc:title /></cc:Work></rdf:RDF></metadata><g
     id="g3135"><g
       id="g3137"><g
         id="g3139"><path
           id="path3141"
           d="M6.121822 10.9923467C5.915822 10.9923467 5.712569 10.9786167 5.512063 10.9538967C5.512063 10.9538967 5.605453 10.2068057 5.605453 10.2068057C5.775746 10.2287757 5.948786 10.2397657 6.121826 10.2397657C6.121826 10.2397657 6.121826 10.9923517 6.121826 10.9923517C6.121826 10.9923517 6.121826 10.9923517 6.121826 10.9923517" /></g><g
         id="g3143"><path
           id="path3145"
           d="M4.270571 10.6297867C3.8750518 10.4677337 3.5015057 10.2534947 3.1581729 9.9925617C3.1581729 9.9925617 3.6141189 9.3937887 3.6141189 9.3937887C3.9025185 9.6135217 4.218385 9.7948017 4.553477 9.9321347C4.553477 9.9321347 4.270571 10.6297867 4.270571 10.6297867C4.270571 10.6297867 4.270571 10.6297867 4.270571 10.6297867M2.2517743 9.0916557C1.9908414 8.7510697 1.7738551 8.3802707 1.6090553 7.9847517C1.6090553 7.9847517 2.3039609 7.6936057 2.3039609 7.6936057C2.4440407 8.0286977 2.6253204 8.3418177 2.8478001 8.6302167C2.8478001 8.6302167 2.2517743 9.0916557 2.2517743 9.0916557C2.2517743 9.0916557 2.2517743 9.0916557 2.2517743 9.0916557M1.2767092 6.7487537C1.2492422 6.5372607 1.2355092 6.3202747 1.2355092 6.1060347C1.2355092 5.8917947 1.2492422 5.6775547 1.2767092 5.4688087C1.2767092 5.4688087 2.0210547 5.5649387 2.0210547 5.5649387C1.9990817 5.7434717 1.9853477 5.9247517 1.9853477 6.1060317C1.9853477 6.2873117 1.9963347 6.4713377 2.0210547 6.6498707C2.0210547 6.6498707 1.2767092 6.7487507 1.2767092 6.7487507C1.2767092 6.7487507 1.2767092 6.7487507 1.2767092 6.7487507M2.3012143 4.5184607C2.3012143 4.5184607 1.6063087 4.2300607 1.6063087 4.2300607C1.7711084 3.8345415 1.9853481 3.4609955 2.2490277 3.123156C2.2490277 3.123156 2.8450534 3.5818486 2.8450534 3.5818486C2.6225738 3.8702482 2.4412941 4.1861147 2.3012143 4.5184607C2.3012143 4.5184607 2.3012143 4.5184607 2.3012143 4.5184607M3.6141189 2.8182794C3.6141189 2.8182794 3.1581729 2.219507 3.1581729 2.219507C3.4987591 1.9585741 3.8723052 1.7443344 4.267825 1.5822814C4.267825 1.5822814 4.553477 2.277187 4.553477 2.277187C4.218385 2.4145201 3.9025185 2.5985465 3.6141189 2.8182794C3.6141189 2.8182794 3.6141189 2.8182794 3.6141189 2.8182794" /></g><g
         id="g3147"><path
           id="path3149"
           d="M5.605449 2.0025207C5.605449 2.0025207 5.512059 1.2554285 5.512059 1.2554285C5.712565 1.2307085 5.918565 1.2169755 6.121818 1.2169755C6.121818 1.2169755 6.121818 1.969561 6.121818 1.969561C5.948778 1.969561 5.775738 1.980548 5.605445 2.002521C5.605445 2.002521 5.605445 2.002521 5.605445 2.002521" /></g></g><g
       id="g3151"><path
         id="path3153"
         d="M6.121822 10.9923467C4.992943 10.9923467 3.8887851 10.5968267 3.0180932 9.8799487C3.0180932 9.8799487 3.4960124 9.3004027 3.4960124 9.3004027C4.232118 9.9074147 5.165983 10.2397607 6.121822 10.2397607C8.401552 10.2397607 10.258295 8.3857647 10.258295 6.1032877C10.258295 3.8208112 8.401552 1.9695608 6.121822 1.9695608C6.121822 1.9695608 6.121822 1.2197219 6.121822 1.2197219C8.816298 1.2197219 11.008134 3.4115585 11.008134 6.1060347C11.008134 8.8005097 8.816298 10.9923467 6.121822 10.9923467C6.121822 10.9923467 6.121822 10.9923467 6.121822 10.9923467" /></g><g
       id="g3155"><path
         id="path3157"
         d="M5.679609 5.3314757C5.679609 5.7517147 5.597209 6.0703277 5.435156 6.2818207C5.273103 6.4933137 5.034143 6.6004337 4.718277 6.6004337C4.416144 6.6004337 4.182678 6.4905677 4.0178783 6.2735807C3.8530785 6.0565947 3.7706787 5.7434747 3.7706787 5.3314757C3.7706787 4.4937437 4.0865448 4.0762508 4.718277 4.0762508C5.02865 4.0762508 5.264863 4.1833707 5.43241 4.4031037C5.597209 4.6173437 5.679609 4.9277157 5.679609 5.3314757C5.679609 5.3314757 5.679609 5.3314757 5.679609 5.3314757M4.462838 5.3369757C4.462838 5.5704417 4.484808 5.7434817 4.526008 5.8588417C4.567208 5.9742017 4.633128 6.0291347 4.726514 6.0291347C4.902301 6.0291347 4.990194 5.7984147 4.990194 5.3369757C4.990194 4.8782827 4.902304 4.6503097 4.726514 4.6503097C4.635874 4.6503097 4.567208 4.7079897 4.526008 4.8206027C4.482058 4.9304697 4.462838 5.1035097 4.462838 5.3369757C4.462838 5.3369757 4.462838 5.3369757 4.462838 5.3369757M7.57206 4.1311887C7.57206 4.1311887 5.34177 8.1495567 5.34177 8.1495567C5.34177 8.1495567 4.682571 8.1495567 4.682571 8.1495567C4.682571 8.1495567 6.912861 4.1311887 6.912861 4.1311887C6.912861 4.1311887 7.57206 4.1311887 7.57206 4.1311887C7.57206 4.1311887 7.57206 4.1311887 7.57206 4.1311887M8.494938 6.9355317C8.494938 7.3557707 8.412538 7.6716367 8.250485 7.8831297C8.088432 8.0946227 7.849473 8.2017427 7.533606 8.2017427C7.231473 8.2017427 6.998007 8.0918757 6.833207 7.8748897C6.668408 7.6579037 6.586008 7.3447847 6.586008 6.9355317C6.586008 6.0977997 6.901874 5.6803067 7.533606 5.6803067C7.843979 5.6803067 8.080192 5.7874267 8.247739 6.0071597C8.412538 6.2213997 8.494938 6.5317717 8.494938 6.9355317C8.494938 6.9355317 8.494938 6.9355317 8.494938 6.9355317M7.278167 6.9410317C7.278167 7.1744977 7.297397 7.3475377 7.341337 7.4628977C7.382537 7.5782567 7.448457 7.6359377 7.541843 7.6359377C7.71763 7.6359377 7.805523 7.4052177 7.805523 6.9437787C7.805523 6.4850857 7.717633 6.2571127 7.541843 6.2571127C7.451203 6.2571127 7.382537 6.3147927 7.341337 6.4274057C7.297387 6.5372727 7.278167 6.7075657 7.278167 6.9410317C7.278167 6.9410317 7.278167 6.9410317 7.278167 6.9410317" /></g></g></svg>